<svg width="162" height="161" viewBox="0 0 162 161" fill="none" xmlns="http://www.w3.org/2000/svg">
<g filter="url(#filter0_ii)">
<rect x="44.7761" width="71.9972" height="69.0215" rx="34.5108" fill="url(#paint0_linear)"/>
<rect x="44.7761" width="71.9972" height="69.0215" rx="34.5108" fill="url(#paint1_linear)" fill-opacity="0.2" style="mix-blend-mode:soft-light"/>
</g>
<g filter="url(#filter1_ddiiii)">
<path d="M96.8132 14.1044H65.6548C62.4804 14.1044 59.907 16.5713 59.907 19.6146V49.4855C59.907 52.5288 62.4803 54.9957 65.6548 54.9957H73.7289C77.7589 54.9957 81.0278 51.7326 81.035 47.7026L81.0411 44.3433C81.045 42.1574 79.2741 40.3834 77.0882 40.3834C76.5736 40.3834 76.1559 39.9844 76.1539 39.4911L76.1349 34.7809C76.1329 34.2849 76.5519 33.8817 77.0693 33.8817C79.2524 33.8817 81.0221 32.112 81.0221 29.929V29.3305C81.0221 24.0489 84.3868 21.173 89.3015 21.173H93.3344C93.8504 21.173 94.2688 21.574 94.2688 22.0688V26.0404C94.2688 26.535 93.8507 26.9359 93.3349 26.9362L90.86 26.9373C88.1873 26.9373 87.6697 28.1549 87.6697 29.9417C87.6697 32.1178 89.4338 33.8818 91.6098 33.8818H93.5427C94.1023 33.8818 94.5365 34.3503 94.4705 34.8831L93.8882 39.5932C93.8325 40.044 93.4338 40.3836 92.9604 40.3836C90.0513 40.3836 87.6917 42.739 87.6865 45.648L87.6828 47.6767C87.6756 51.7169 90.9488 54.9959 94.989 54.9959H96.8134C99.9878 54.9959 102.561 52.529 102.561 49.4858V19.6146C102.561 16.5713 99.9877 14.1044 96.8132 14.1044Z" fill="#5A92FF"/>
<path d="M96.8132 14.1044H65.6548C62.4804 14.1044 59.907 16.5713 59.907 19.6146V49.4855C59.907 52.5288 62.4803 54.9957 65.6548 54.9957H73.7289C77.7589 54.9957 81.0278 51.7326 81.035 47.7026L81.0411 44.3433C81.045 42.1574 79.2741 40.3834 77.0882 40.3834C76.5736 40.3834 76.1559 39.9844 76.1539 39.4911L76.1349 34.7809C76.1329 34.2849 76.5519 33.8817 77.0693 33.8817C79.2524 33.8817 81.0221 32.112 81.0221 29.929V29.3305C81.0221 24.0489 84.3868 21.173 89.3015 21.173H93.3344C93.8504 21.173 94.2688 21.574 94.2688 22.0688V26.0404C94.2688 26.535 93.8507 26.9359 93.3349 26.9362L90.86 26.9373C88.1873 26.9373 87.6697 28.1549 87.6697 29.9417C87.6697 32.1178 89.4338 33.8818 91.6098 33.8818H93.5427C94.1023 33.8818 94.5365 34.3503 94.4705 34.8831L93.8882 39.5932C93.8325 40.044 93.4338 40.3836 92.9604 40.3836C90.0513 40.3836 87.6917 42.739 87.6865 45.648L87.6828 47.6767C87.6756 51.7169 90.9488 54.9959 94.989 54.9959H96.8134C99.9878 54.9959 102.561 52.529 102.561 49.4858V19.6146C102.561 16.5713 99.9877 14.1044 96.8132 14.1044Z" fill="url(#paint2_linear)"/>
<path d="M96.8132 14.1044H65.6548C62.4804 14.1044 59.907 16.5713 59.907 19.6146V49.4855C59.907 52.5288 62.4803 54.9957 65.6548 54.9957H73.7289C77.7589 54.9957 81.0278 51.7326 81.035 47.7026L81.0411 44.3433C81.045 42.1574 79.2741 40.3834 77.0882 40.3834C76.5736 40.3834 76.1559 39.9844 76.1539 39.4911L76.1349 34.7809C76.1329 34.2849 76.5519 33.8817 77.0693 33.8817C79.2524 33.8817 81.0221 32.112 81.0221 29.929V29.3305C81.0221 24.0489 84.3868 21.173 89.3015 21.173H93.3344C93.8504 21.173 94.2688 21.574 94.2688 22.0688V26.0404C94.2688 26.535 93.8507 26.9359 93.3349 26.9362L90.86 26.9373C88.1873 26.9373 87.6697 28.1549 87.6697 29.9417C87.6697 32.1178 89.4338 33.8818 91.6098 33.8818H93.5427C94.1023 33.8818 94.5365 34.3503 94.4705 34.8831L93.8882 39.5932C93.8325 40.044 93.4338 40.3836 92.9604 40.3836C90.0513 40.3836 87.6917 42.739 87.6865 45.648L87.6828 47.6767C87.6756 51.7169 90.9488 54.9959 94.989 54.9959H96.8134C99.9878 54.9959 102.561 52.529 102.561 49.4858V19.6146C102.561 16.5713 99.9877 14.1044 96.8132 14.1044Z" fill="url(#paint3_linear)" fill-opacity="0.7"/>
</g>
<defs>
<filter id="filter0_ii" x="39.3912" y="-5.38494" width="82.767" height="79.7914" filterUnits="userSpaceOnUse" color-interpolation-filters="sRGB">
<feFlood flood-opacity="0" result="BackgroundImageFix"/>
<feBlend mode="normal" in="SourceGraphic" in2="BackgroundImageFix" result="shape"/>
<feColorMatrix in="SourceAlpha" type="matrix" values="0 0 0 0 0 0 0 0 0 0 0 0 0 0 0 0 0 0 127 0" result="hardAlpha"/>
<feOffset dx="5.38494" dy="5.38494"/>
<feGaussianBlur stdDeviation="2.69247"/>
<feComposite in2="hardAlpha" operator="arithmetic" k2="-1" k3="1"/>
<feColorMatrix type="matrix" values="0 0 0 0 1 0 0 0 0 1 0 0 0 0 1 0 0 0 0.2 0"/>
<feBlend mode="normal" in2="shape" result="effect1_innerShadow"/>
<feColorMatrix in="SourceAlpha" type="matrix" values="0 0 0 0 0 0 0 0 0 0 0 0 0 0 0 0 0 0 127 0" result="hardAlpha"/>
<feOffset dx="-5.38494" dy="-5.38494"/>
<feGaussianBlur stdDeviation="2.69247"/>
<feComposite in2="hardAlpha" operator="arithmetic" k2="-1" k3="1"/>
<feColorMatrix type="matrix" values="0 0 0 0 0 0 0 0 0 0 0 0 0 0 0 0 0 0 0.05 0"/>
<feBlend mode="normal" in2="effect1_innerShadow" result="effect2_innerShadow"/>
</filter>
<filter id="filter1_ddiiii" x="0.672607" y="-61.2848" width="161.123" height="221.287" filterUnits="userSpaceOnUse" color-interpolation-filters="sRGB">
<feFlood flood-opacity="0" result="BackgroundImageFix"/>
<feColorMatrix in="SourceAlpha" type="matrix" values="0 0 0 0 0 0 0 0 0 0 0 0 0 0 0 0 0 0 127 0"/>
<feOffset dy="45.772"/>
<feGaussianBlur stdDeviation="29.6172"/>
<feColorMatrix type="matrix" values="0 0 0 0 0 0 0 0 0 0 0 0 0 0 0 0 0 0 0.2 0"/>
<feBlend mode="normal" in2="BackgroundImageFix" result="effect1_dropShadow"/>
<feColorMatrix in="SourceAlpha" type="matrix" values="0 0 0 0 0 0 0 0 0 0 0 0 0 0 0 0 0 0 127 0"/>
<feOffset dy="13.4624"/>
<feGaussianBlur stdDeviation="10.7699"/>
<feColorMatrix type="matrix" values="0 0 0 0 0 0 0 0 0 0 0 0 0 0 0 0 0 0 0.2 0"/>
<feBlend mode="normal" in2="effect1_dropShadow" result="effect2_dropShadow"/>
<feBlend mode="normal" in="SourceGraphic" in2="effect2_dropShadow" result="shape"/>
<feColorMatrix in="SourceAlpha" type="matrix" values="0 0 0 0 0 0 0 0 0 0 0 0 0 0 0 0 0 0 127 0" result="hardAlpha"/>
<feOffset dy="-75.3892"/>
<feGaussianBlur stdDeviation="67.3118"/>
<feComposite in2="hardAlpha" operator="arithmetic" k2="-1" k3="1"/>
<feColorMatrix type="matrix" values="0 0 0 0 0 0 0 0 0 0 0 0 0 0 0 0 0 0 0.2 0"/>
<feBlend mode="normal" in2="shape" result="effect3_innerShadow"/>
<feColorMatrix in="SourceAlpha" type="matrix" values="0 0 0 0 0 0 0 0 0 0 0 0 0 0 0 0 0 0 127 0" result="hardAlpha"/>
<feOffset dy="-20.1935"/>
<feGaussianBlur stdDeviation="6.73118"/>
<feComposite in2="hardAlpha" operator="arithmetic" k2="-1" k3="1"/>
<feColorMatrix type="matrix" values="0 0 0 0 1 0 0 0 0 1 0 0 0 0 1 0 0 0 0.45 0"/>
<feBlend mode="normal" in2="effect3_innerShadow" result="effect4_innerShadow"/>
<feColorMatrix in="SourceAlpha" type="matrix" values="0 0 0 0 0 0 0 0 0 0 0 0 0 0 0 0 0 0 127 0" result="hardAlpha"/>
<feOffset dy="-33.6559"/>
<feGaussianBlur stdDeviation="26.9247"/>
<feComposite in2="hardAlpha" operator="arithmetic" k2="-1" k3="1"/>
<feColorMatrix type="matrix" values="0 0 0 0 0.0338542 0 0 0 0 0.251875 0 0 0 0 0.8125 0 0 0 1 0"/>
<feBlend mode="normal" in2="effect4_innerShadow" result="effect5_innerShadow"/>
<feColorMatrix in="SourceAlpha" type="matrix" values="0 0 0 0 0 0 0 0 0 0 0 0 0 0 0 0 0 0 127 0" result="hardAlpha"/>
<feOffset dy="-13.4624"/>
<feGaussianBlur stdDeviation="38.46"/>
<feComposite in2="hardAlpha" operator="arithmetic" k2="-1" k3="1"/>
<feColorMatrix type="matrix" values="0 0 0 0 1 0 0 0 0 1 0 0 0 0 1 0 0 0 0.22 0"/>
<feBlend mode="normal" in2="effect5_innerShadow" result="effect6_innerShadow"/>
</filter>
<linearGradient id="paint0_linear" x1="80.7747" y1="0" x2="80.7747" y2="69.0215" gradientUnits="userSpaceOnUse">
<stop stop-color="white"/>
<stop offset="1" stop-color="#E9E9E9"/>
</linearGradient>
<linearGradient id="paint1_linear" x1="80.7747" y1="0" x2="80.7747" y2="69.0215" gradientUnits="userSpaceOnUse">
<stop offset="0.328125" stop-color="white"/>
<stop offset="1" stop-opacity="0.1"/>
</linearGradient>
<linearGradient id="paint2_linear" x1="81.2667" y1="-0.580894" x2="81.2667" y2="45.9089" gradientUnits="userSpaceOnUse">
<stop offset="0.00520833" stop-color="white" stop-opacity="0.08"/>
<stop offset="0.0851933" stop-opacity="0.08"/>
<stop offset="0.336988" stop-color="white" stop-opacity="0.1"/>
<stop offset="0.660917" stop-color="white" stop-opacity="0.1"/>
<stop offset="1" stop-opacity="0.1"/>
</linearGradient>
<linearGradient id="paint3_linear" x1="81.2341" y1="14.1044" x2="81.2341" y2="54.9959" gradientUnits="userSpaceOnUse">
<stop stop-color="#52B6FF"/>
<stop offset="1" stop-color="white" stop-opacity="0"/>
</linearGradient>
</defs>
</svg>
