<svg width="168" height="166" viewBox="0 0 168 166" fill="none" xmlns="http://www.w3.org/2000/svg">
<rect x="48.0028" y="16.0619" width="71.9972" height="69.0215" rx="34.5108" fill="url(#paint0_linear)"/>
<rect x="48.0028" y="16.0619" width="71.9972" height="69.0215" rx="34.5108" fill="url(#paint1_linear)" fill-opacity="0.2" style="mix-blend-mode:soft-light"/>
<g filter="url(#filter0_dii)">
<path d="M93.9123 27.0653H74.0902C66.0344 27.0653 59.4805 33.3484 59.4805 41.0713V60.0741C59.4805 67.797 66.0344 74.08 74.0902 74.08H93.9123C101.968 74.08 108.522 67.797 108.522 60.0741V41.0713C108.522 33.3484 101.968 27.0653 93.9123 27.0653ZM103.588 60.0741C103.588 65.1972 99.2562 69.3503 93.9123 69.3503H74.0902C68.7463 69.3503 64.414 65.1972 64.414 60.0741V41.0713C64.414 35.9481 68.7463 31.795 74.0902 31.795H93.9123C99.2562 31.795 103.588 35.9481 103.588 41.0713V60.0741Z" fill="white"/>
</g>
<g filter="url(#filter1_dii)">
<path d="M84.0013 38.413C77.0074 38.413 71.3174 43.8678 71.3174 50.5726C71.3174 57.2773 77.0074 62.7323 84.0013 62.7323C90.9952 62.7323 96.6852 57.2774 96.6852 50.5726C96.6852 43.8677 90.9952 38.413 84.0013 38.413ZM84.0013 58.0027C79.7209 58.0027 76.251 54.6762 76.251 50.5727C76.251 46.4692 79.721 43.1427 84.0013 43.1427C88.2817 43.1427 91.7516 46.4692 91.7516 50.5727C91.7516 54.6761 88.2816 58.0027 84.0013 58.0027Z" fill="white"/>
</g>
<g filter="url(#filter2_dii)">
<path d="M96.7097 41.418C98.3883 41.418 99.7491 40.1135 99.7491 38.5043C99.7491 36.8951 98.3883 35.5906 96.7097 35.5906C95.0312 35.5906 93.6704 36.8951 93.6704 38.5043C93.6704 40.1135 95.0312 41.418 96.7097 41.418Z" fill="white"/>
</g>
<defs>
<filter id="filter0_dii" x="0.246094" y="0.140621" width="167.51" height="165.483" filterUnits="userSpaceOnUse" color-interpolation-filters="sRGB">
<feFlood flood-opacity="0" result="BackgroundImageFix"/>
<feColorMatrix in="SourceAlpha" type="matrix" values="0 0 0 0 0 0 0 0 0 0 0 0 0 0 0 0 0 0 127 0"/>
<feOffset dy="32.3097"/>
<feGaussianBlur stdDeviation="29.6172"/>
<feColorMatrix type="matrix" values="0 0 0 0 0 0 0 0 0 0 0 0 0 0 0 0 0 0 0.25 0"/>
<feBlend mode="normal" in2="BackgroundImageFix" result="effect1_dropShadow"/>
<feBlend mode="normal" in="SourceGraphic" in2="effect1_dropShadow" result="shape"/>
<feColorMatrix in="SourceAlpha" type="matrix" values="0 0 0 0 0 0 0 0 0 0 0 0 0 0 0 0 0 0 127 0" result="hardAlpha"/>
<feOffset dy="-19"/>
<feGaussianBlur stdDeviation="5"/>
<feComposite in2="hardAlpha" operator="arithmetic" k2="-1" k3="1"/>
<feColorMatrix type="matrix" values="0 0 0 0 0.716667 0 0 0 0 0.0716667 0 0 0 0 0.0716667 0 0 0 0.29 0"/>
<feBlend mode="normal" in2="shape" result="effect2_innerShadow"/>
<feColorMatrix in="SourceAlpha" type="matrix" values="0 0 0 0 0 0 0 0 0 0 0 0 0 0 0 0 0 0 127 0" result="hardAlpha"/>
<feOffset dy="-4"/>
<feGaussianBlur stdDeviation="7"/>
<feComposite in2="hardAlpha" operator="arithmetic" k2="-1" k3="1"/>
<feColorMatrix type="matrix" values="0 0 0 0 1 0 0 0 0 1 0 0 0 0 1 0 0 0 0.5 0"/>
<feBlend mode="normal" in2="effect2_innerShadow" result="effect3_innerShadow"/>
</filter>
<filter id="filter1_dii" x="12.083" y="11.4883" width="143.837" height="142.788" filterUnits="userSpaceOnUse" color-interpolation-filters="sRGB">
<feFlood flood-opacity="0" result="BackgroundImageFix"/>
<feColorMatrix in="SourceAlpha" type="matrix" values="0 0 0 0 0 0 0 0 0 0 0 0 0 0 0 0 0 0 127 0"/>
<feOffset dy="32.3097"/>
<feGaussianBlur stdDeviation="29.6172"/>
<feColorMatrix type="matrix" values="0 0 0 0 0 0 0 0 0 0 0 0 0 0 0 0 0 0 0.25 0"/>
<feBlend mode="normal" in2="BackgroundImageFix" result="effect1_dropShadow"/>
<feBlend mode="normal" in="SourceGraphic" in2="effect1_dropShadow" result="shape"/>
<feColorMatrix in="SourceAlpha" type="matrix" values="0 0 0 0 0 0 0 0 0 0 0 0 0 0 0 0 0 0 127 0" result="hardAlpha"/>
<feOffset dy="-19"/>
<feGaussianBlur stdDeviation="5"/>
<feComposite in2="hardAlpha" operator="arithmetic" k2="-1" k3="1"/>
<feColorMatrix type="matrix" values="0 0 0 0 0.716667 0 0 0 0 0.0716667 0 0 0 0 0.0716667 0 0 0 0.29 0"/>
<feBlend mode="normal" in2="shape" result="effect2_innerShadow"/>
<feColorMatrix in="SourceAlpha" type="matrix" values="0 0 0 0 0 0 0 0 0 0 0 0 0 0 0 0 0 0 127 0" result="hardAlpha"/>
<feOffset dy="-4"/>
<feGaussianBlur stdDeviation="7"/>
<feComposite in2="hardAlpha" operator="arithmetic" k2="-1" k3="1"/>
<feColorMatrix type="matrix" values="0 0 0 0 1 0 0 0 0 1 0 0 0 0 1 0 0 0 0.5 0"/>
<feBlend mode="normal" in2="effect2_innerShadow" result="effect3_innerShadow"/>
</filter>
<filter id="filter2_dii" x="34.436" y="8.66589" width="124.547" height="124.296" filterUnits="userSpaceOnUse" color-interpolation-filters="sRGB">
<feFlood flood-opacity="0" result="BackgroundImageFix"/>
<feColorMatrix in="SourceAlpha" type="matrix" values="0 0 0 0 0 0 0 0 0 0 0 0 0 0 0 0 0 0 127 0"/>
<feOffset dy="32.3097"/>
<feGaussianBlur stdDeviation="29.6172"/>
<feColorMatrix type="matrix" values="0 0 0 0 0 0 0 0 0 0 0 0 0 0 0 0 0 0 0.25 0"/>
<feBlend mode="normal" in2="BackgroundImageFix" result="effect1_dropShadow"/>
<feBlend mode="normal" in="SourceGraphic" in2="effect1_dropShadow" result="shape"/>
<feColorMatrix in="SourceAlpha" type="matrix" values="0 0 0 0 0 0 0 0 0 0 0 0 0 0 0 0 0 0 127 0" result="hardAlpha"/>
<feOffset dy="-19"/>
<feGaussianBlur stdDeviation="5"/>
<feComposite in2="hardAlpha" operator="arithmetic" k2="-1" k3="1"/>
<feColorMatrix type="matrix" values="0 0 0 0 0.716667 0 0 0 0 0.0716667 0 0 0 0 0.0716667 0 0 0 0.29 0"/>
<feBlend mode="normal" in2="shape" result="effect2_innerShadow"/>
<feColorMatrix in="SourceAlpha" type="matrix" values="0 0 0 0 0 0 0 0 0 0 0 0 0 0 0 0 0 0 127 0" result="hardAlpha"/>
<feOffset dy="-4"/>
<feGaussianBlur stdDeviation="7"/>
<feComposite in2="hardAlpha" operator="arithmetic" k2="-1" k3="1"/>
<feColorMatrix type="matrix" values="0 0 0 0 1 0 0 0 0 1 0 0 0 0 1 0 0 0 0.5 0"/>
<feBlend mode="normal" in2="effect2_innerShadow" result="effect3_innerShadow"/>
</filter>
<linearGradient id="paint0_linear" x1="84.0014" y1="16.0619" x2="84.0014" y2="85.0834" gradientUnits="userSpaceOnUse">
<stop stop-color="#FF2272"/>
<stop offset="1" stop-color="#B12000"/>
</linearGradient>
<linearGradient id="paint1_linear" x1="84.0014" y1="16.0619" x2="84.0014" y2="85.0834" gradientUnits="userSpaceOnUse">
<stop offset="0.328125" stop-color="white"/>
<stop offset="1" stop-opacity="0.1"/>
</linearGradient>
</defs>
</svg>
