<svg width="162" height="162" viewBox="0 0 162 162" fill="none" xmlns="http://www.w3.org/2000/svg">
<g filter="url(#filter0_ii)">
<rect x="44.3342" y="1.06189" width="71.9972" height="69.0215" rx="34.5108" fill="url(#paint0_linear)"/>
<rect x="44.3342" y="1.06189" width="71.9972" height="69.0215" rx="34.5108" fill="url(#paint1_linear)" fill-opacity="0.2" style="mix-blend-mode:soft-light"/>
</g>
<g filter="url(#filter1_ddiii)">
<path d="M70.2891 54.8604C70.2891 55.6439 69.6459 56.2791 68.8526 56.2791H62.7377C61.9443 56.2791 61.3012 55.6439 61.3012 54.8604V29.5452C61.3012 28.7616 61.9443 28.1265 62.7377 28.1265H68.8526C69.6459 28.1265 70.2891 28.7616 70.2891 29.5452V54.8604ZM65.7951 25.7401C62.5868 25.7401 59.986 23.1715 59.986 20.003C59.986 16.8346 62.5868 14.266 65.7951 14.266C69.0034 14.266 71.6043 16.8346 71.6043 20.003C71.6043 23.1715 69.0035 25.7401 65.7951 25.7401ZM102.245 54.9747C102.245 55.695 101.654 56.2791 100.924 56.2791H94.3627C93.6333 56.2791 93.0419 55.695 93.0419 54.9747V43.1004C93.0419 41.329 93.568 35.3381 88.3545 35.3381C84.3106 35.3381 83.4903 39.4387 83.3256 41.2789V54.9747C83.3256 55.695 82.7343 56.2791 82.0048 56.2791H75.6585C74.9291 56.2791 74.3377 55.695 74.3377 54.9747V29.4309C74.3377 28.7105 74.9291 28.1265 75.6585 28.1265H82.0048C82.7342 28.1265 83.3256 28.7105 83.3256 29.4309C83.3256 30.0972 84.2591 30.4089 84.7508 29.9593C86.2273 28.6092 88.3472 27.7017 91.7983 27.7017C102.305 27.7017 102.245 37.396 102.245 42.7226V54.9747Z" fill="white"/>
</g>
<defs>
<filter id="filter0_ii" x="38.9493" y="-4.32305" width="82.767" height="79.7914" filterUnits="userSpaceOnUse" color-interpolation-filters="sRGB">
<feFlood flood-opacity="0" result="BackgroundImageFix"/>
<feBlend mode="normal" in="SourceGraphic" in2="BackgroundImageFix" result="shape"/>
<feColorMatrix in="SourceAlpha" type="matrix" values="0 0 0 0 0 0 0 0 0 0 0 0 0 0 0 0 0 0 127 0" result="hardAlpha"/>
<feOffset dx="5.38494" dy="8"/>
<feGaussianBlur stdDeviation="2.69247"/>
<feComposite in2="hardAlpha" operator="arithmetic" k2="-1" k3="1"/>
<feColorMatrix type="matrix" values="0 0 0 0 1 0 0 0 0 1 0 0 0 0 1 0 0 0 0.2 0"/>
<feBlend mode="normal" in2="shape" result="effect1_innerShadow"/>
<feColorMatrix in="SourceAlpha" type="matrix" values="0 0 0 0 0 0 0 0 0 0 0 0 0 0 0 0 0 0 127 0" result="hardAlpha"/>
<feOffset dx="-5.38494" dy="-7"/>
<feGaussianBlur stdDeviation="2.69247"/>
<feComposite in2="hardAlpha" operator="arithmetic" k2="-1" k3="1"/>
<feColorMatrix type="matrix" values="0 0 0 0 0 0 0 0 0 0 0 0 0 0 0 0 0 0 0.05 0"/>
<feBlend mode="normal" in2="effect1_innerShadow" result="effect2_innerShadow"/>
</filter>
<filter id="filter1_ddiii" x="0.751587" y="-41.734" width="160.728" height="203.02" filterUnits="userSpaceOnUse" color-interpolation-filters="sRGB">
<feFlood flood-opacity="0" result="BackgroundImageFix"/>
<feColorMatrix in="SourceAlpha" type="matrix" values="0 0 0 0 0 0 0 0 0 0 0 0 0 0 0 0 0 0 127 0"/>
<feOffset dy="45.772"/>
<feGaussianBlur stdDeviation="29.6172"/>
<feColorMatrix type="matrix" values="0 0 0 0 0 0 0 0 0 0.0863333 0 0 0 0 0.308333 0 0 0 0.2 0"/>
<feBlend mode="normal" in2="BackgroundImageFix" result="effect1_dropShadow"/>
<feColorMatrix in="SourceAlpha" type="matrix" values="0 0 0 0 0 0 0 0 0 0 0 0 0 0 0 0 0 0 127 0"/>
<feOffset dy="13.4624"/>
<feGaussianBlur stdDeviation="10.7699"/>
<feColorMatrix type="matrix" values="0 0 0 0 0 0 0 0 0 0.10625 0 0 0 0 0.3125 0 0 0 0.2 0"/>
<feBlend mode="normal" in2="effect1_dropShadow" result="effect2_dropShadow"/>
<feBlend mode="normal" in="SourceGraphic" in2="effect2_dropShadow" result="shape"/>
<feColorMatrix in="SourceAlpha" type="matrix" values="0 0 0 0 0 0 0 0 0 0 0 0 0 0 0 0 0 0 127 0" result="hardAlpha"/>
<feOffset dx="-30" dy="-56"/>
<feGaussianBlur stdDeviation="45"/>
<feComposite in2="hardAlpha" operator="arithmetic" k2="-1" k3="1"/>
<feColorMatrix type="matrix" values="0 0 0 0 0.058087 0 0 0 0 0.191667 0 0 0 0 0.0399306 0 0 0 0.25 0"/>
<feBlend mode="normal" in2="shape" result="effect3_innerShadow"/>
<feColorMatrix in="SourceAlpha" type="matrix" values="0 0 0 0 0 0 0 0 0 0 0 0 0 0 0 0 0 0 127 0" result="hardAlpha"/>
<feOffset dx="14" dy="-14"/>
<feGaussianBlur stdDeviation="5"/>
<feComposite in2="hardAlpha" operator="arithmetic" k2="-1" k3="1"/>
<feColorMatrix type="matrix" values="0 0 0 0 1 0 0 0 0 1 0 0 0 0 1 0 0 0 0.45 0"/>
<feBlend mode="normal" in2="effect3_innerShadow" result="effect4_innerShadow"/>
<feColorMatrix in="SourceAlpha" type="matrix" values="0 0 0 0 0 0 0 0 0 0 0 0 0 0 0 0 0 0 127 0" result="hardAlpha"/>
<feOffset dx="-10" dy="-36"/>
<feGaussianBlur stdDeviation="25"/>
<feComposite in2="hardAlpha" operator="arithmetic" k2="-1" k3="1"/>
<feColorMatrix type="matrix" values="0 0 0 0 0.290196 0 0 0 0 0.729898 0 0 0 0 0.984314 0 0 0 0.6 0"/>
<feBlend mode="normal" in2="effect4_innerShadow" result="effect5_innerShadow"/>
</filter>
<linearGradient id="paint0_linear" x1="80.3328" y1="1.06189" x2="80.3328" y2="70.0834" gradientUnits="userSpaceOnUse">
<stop stop-color="#0077B7"/>
<stop offset="1" stop-color="#00659B"/>
</linearGradient>
<linearGradient id="paint1_linear" x1="80.3328" y1="1.06189" x2="80.3328" y2="70.0834" gradientUnits="userSpaceOnUse">
<stop offset="0.328125" stop-color="white"/>
<stop offset="1" stop-opacity="0.1"/>
</linearGradient>
</defs>
</svg>
